# xmcd CD database file
#
# Track frame offsets:
#	150
#	15817
#	28342
#	46005
#	61521
#	74697
#	84364
#	95300
#	108595
#	124021
#	139984
#	153178
#	165483
#	172692
#	183164
#
# Disc length: 2636 seconds
#
# Revision: 0
# Processed by: cddbd v1.5.2PL0 Copyright (c) Steve Scherf et al.
# Submitted via: CDex 1.70beta2
#
DISCID=ac0a4a0f
DTITLE=Peter, Paul and Mary - Peter,Paul and Mary Greatest Hit
DYEAR=2006
DGENRE=Country
TTITLE0=Leaving On A Jet Plane
TTITLE1=Five Hundred Miles(500 Miles)
TTITLE2=Where Have All The Flowers Gone
TTITLE3=Puff, The Magic Dragon
TTITLE4=Lemon Tree
TTITLE5=If I Had A Hammer
TTITLE6=This Land Is Your Land
TTITLE7=Blowin' In The Wind
TTITLE8=The Cruel War
TTITLE9=Tiny Sparrow
TTITLE10=I'd Rather Be In Love
TTITLE11=No Easy Walk To Freedom
TTITLE12=Early In The Morning
TTITLE13=Weave Me The Sunshine
TTITLE14=A Soalin'
EXTD=YEAR: 2006
EXTT0=
EXTT1=
EXTT2=
EXTT3=
EXTT4=
EXTT5=
EXTT6=
EXTT7=
EXTT8=
EXTT9=
EXTT10=
EXTT11=
EXTT12=
EXTT13=
EXTT14=
PLAYORDER=
